<svg width="93" height="33" viewBox="0 0 93 33" fill="none" xmlns="http://www.w3.org/2000/svg">
<path d="M10.2895 32.5929C8.41219 32.5929 6.87619 32.2089 5.68152 31.4409C4.48686 30.6729 3.50552 29.6916 2.73752 28.4969C1.88419 27.0462 1.28686 25.5529 0.945523 24.0169C0.689523 22.3956 0.561523 21.0729 0.561523 20.0489C0.561523 15.8676 1.62819 12.0703 3.76152 8.65692C5.89486 5.24359 9.22286 2.47025 13.7455 0.336914L14.8975 2.64091C12.2522 3.75025 9.94819 5.49958 7.98552 7.88892C6.10819 10.2782 5.16952 12.7103 5.16952 15.1849C5.16952 16.2089 5.29752 17.1049 5.55352 17.8729C6.91886 16.7636 8.49752 16.2089 10.2895 16.2089C12.5082 16.2089 14.4282 16.9342 16.0495 18.3849C17.6709 19.8356 18.4815 21.8409 18.4815 24.4009C18.4815 26.7903 17.6709 28.7529 16.0495 30.2889C14.4282 31.8249 12.5082 32.5929 10.2895 32.5929ZM32.0495 32.5929C30.1722 32.5929 28.6362 32.2089 27.4415 31.4409C26.2469 30.6729 25.2655 29.6916 24.4975 28.4969C23.6442 27.0462 23.0469 25.5529 22.7055 24.0169C22.4495 22.3956 22.3215 21.0729 22.3215 20.0489C22.3215 15.8676 23.3882 12.0703 25.5215 8.65692C27.6549 5.24359 30.9829 2.47025 35.5055 0.336914L36.6575 2.64091C34.0122 3.75025 31.7082 5.49958 29.7455 7.88892C27.8682 10.2782 26.9295 12.7103 26.9295 15.1849C26.9295 16.2089 27.0575 17.1049 27.3135 17.8729C28.6789 16.7636 30.2575 16.2089 32.0495 16.2089C34.2682 16.2089 36.1882 16.9342 37.8095 18.3849C39.4309 19.8356 40.2415 21.8409 40.2415 24.4009C40.2415 26.7903 39.4309 28.7529 37.8095 30.2889C36.1882 31.8249 34.2682 32.5929 32.0495 32.5929Z" fill="#84FF5F"/>
<path d="M82.4775 0.336914C84.3549 0.336914 85.8909 0.720914 87.0855 1.48891C88.2802 2.25691 89.2615 3.23825 90.0295 4.43291C90.9682 5.79825 91.5655 7.29159 91.8215 8.91292C92.0775 10.5343 92.2055 11.8569 92.2055 12.8809C92.2055 17.0623 91.1389 20.8596 89.0055 24.2729C86.8722 27.6863 83.5442 30.4596 79.0215 32.5929L77.8695 30.2889C80.5149 29.1796 82.7762 27.4303 84.6535 25.0409C86.6162 22.6516 87.5975 20.2196 87.5975 17.7449C87.5975 16.7209 87.4695 15.8249 87.2135 15.0569C85.8482 16.1662 84.2695 16.7209 82.4775 16.7209C80.2589 16.7209 78.3389 15.9956 76.7175 14.5449C75.0962 13.0943 74.2855 11.0889 74.2855 8.52892C74.2855 6.13958 75.0962 4.17692 76.7175 2.64091C78.3389 1.10491 80.2589 0.336914 82.4775 0.336914ZM60.7175 0.336914C62.5949 0.336914 64.1309 0.720914 65.3255 1.48891C66.5202 2.25691 67.5015 3.23825 68.2695 4.43291C69.2082 5.79825 69.8055 7.29159 70.0615 8.91292C70.3175 10.5343 70.4455 11.8569 70.4455 12.8809C70.4455 17.0623 69.3789 20.8596 67.2455 24.2729C65.1122 27.6863 61.7842 30.4596 57.2615 32.5929L56.1095 30.2889C58.7549 29.1796 61.0162 27.4303 62.8935 25.0409C64.8562 22.6516 65.8375 20.2196 65.8375 17.7449C65.8375 16.7209 65.7095 15.8249 65.4535 15.0569C64.0882 16.1662 62.5095 16.7209 60.7175 16.7209C58.4989 16.7209 56.5789 15.9956 54.9575 14.5449C53.3362 13.0943 52.5255 11.0889 52.5255 8.52892C52.5255 6.13958 53.3362 4.17692 54.9575 2.64091C56.5789 1.10491 58.4989 0.336914 60.7175 0.336914Z" fill="#84FF5F"/>
</svg>
